ply
format ascii 1.0
comment BIM model
element vertex 56
comment BIM model
property float x
property float y
property float z
element face 84
property list uchar int vertex_indices
property uchar red
property uchar green
property uchar blue
end_header
0 -5.09999990463256836 0
0 -0.100000001490116119 0
0 -0.100000001490116119 3
0 -5.09999990463256836 3
7 -5.09999990463256836 3
7 -5.09999990463256836 0
7 -0.100000001490116119 0
7 -0.100000001490116119 3
0.400000005960464478 -2.59999990463256836 2.90000009536743164
0.400000005960464478 -2.5 2.90000009536743164
0.400000005960464478 -2.5 3
0.400000005960464478 -2.59999990463256836 3
0.5 -2.59999990463256836 3
0.5 -2.59999990463256836 2.90000009536743164
0.5 -2.5 2.90000009536743164
0.5 -2.5 3
1.39999997615814209 -2.59999990463256836 2.90000009536743164
1.39999997615814209 -2.5 2.90000009536743164
1.39999997615814209 -2.5 3
1.39999997615814209 -2.59999990463256836 3
1.5 -2.59999990463256836 2.90000009536743164
1.5 -2.59999990463256836 3
1.5 -2.5 2.90000009536743164
1.5 -2.5 3
2.40000009536743164 -2.59999990463256836 2.90000009536743164
2.40000009536743164 -2.5 2.90000009536743164
2.40000009536743164 -2.5 3
2.40000009536743164 -2.59999990463256836 3
2.5 -2.59999990463256836 2.90000009536743164
2.5 -2.59999990463256836 3
2.5 -2.5 2.90000009536743164
2.5 -2.5 3
3.40000009536743164 -2.59999990463256836 2.90000009536743164
3.40000009536743164 -2.5 2.90000009536743164
3.40000009536743164 -2.5 3
3.40000009536743164 -2.59999990463256836 3
3.5 -2.59999990463256836 2.90000009536743164
3.5 -2.59999990463256836 3
3.5 -2.5 2.90000009536743164
3.5 -2.5 3
4.40000009536743164 -2.59999990463256836 2.90000009536743164
4.40000009536743164 -2.5 2.90000009536743164
4.40000009536743164 -2.5 3
4.40000009536743164 -2.59999990463256836 3
4.5 -2.59999990463256836 3
4.5 -2.59999990463256836 2.90000009536743164
4.5 -2.5 2.90000009536743164
4.5 -2.5 3
5.40000009536743164 -2.59999990463256836 2.90000009536743164
5.40000009536743164 -2.5 2.90000009536743164
5.40000009536743164 -2.5 3
5.40000009536743164 -2.59999990463256836 3
5.5 -2.59999990463256836 3
5.5 -2.59999990463256836 2.90000009536743164
5.5 -2.5 2.90000009536743164
5.5 -2.5 3
3 0 1 2 156 43 148
3 0 2 3 156 43 148
3 4 0 3 156 43 148
3 5 0 4 156 43 148
3 6 5 4 156 43 148
3 6 4 7 156 43 148
3 2 6 7 156 43 148
3 1 6 2 156 43 148
3 6 1 0 156 43 148
3 6 0 5 156 43 148
3 7 2 3 156 43 148
3 7 3 4 156 43 148
3 8 9 10 184 212 207
3 8 10 11 184 212 207
3 8 11 12 184 212 207
3 13 8 12 184 212 207
3 14 13 12 184 212 207
3 14 12 15 184 212 207
3 14 15 10 184 212 207
3 9 14 10 184 212 207
3 9 8 13 184 212 207
3 14 9 13 184 212 207
3 10 11 12 184 212 207
3 15 10 12 184 212 207
3 16 17 18 184 212 207
3 16 18 19 184 212 207
3 20 16 19 184 212 207
3 20 19 21 184 212 207
3 22 20 21 184 212 207
3 22 21 23 184 212 207
3 17 22 23 184 212 207
3 17 23 18 184 212 207
3 22 17 16 184 212 207
3 22 16 20 184 212 207
3 23 18 19 184 212 207
3 23 19 21 184 212 207
3 24 25 26 184 212 207
3 24 26 27 184 212 207
3 28 24 27 184 212 207
3 28 27 29 184 212 207
3 30 28 29 184 212 207
3 30 29 31 184 212 207
3 25 30 31 184 212 207
3 25 31 26 184 212 207
3 30 25 24 184 212 207
3 30 24 28 184 212 207
3 31 26 27 184 212 207
3 31 27 29 184 212 207
3 32 33 34 184 212 207
3 32 34 35 184 212 207
3 36 32 35 184 212 207
3 36 35 37 184 212 207
3 38 36 37 184 212 207
3 38 37 39 184 212 207
3 33 38 39 184 212 207
3 33 39 34 184 212 207
3 38 33 32 184 212 207
3 38 32 36 184 212 207
3 39 34 35 184 212 207
3 39 35 37 184 212 207
3 40 41 42 184 212 207
3 40 42 43 184 212 207
3 40 43 44 184 212 207
3 45 40 44 184 212 207
3 46 45 44 184 212 207
3 46 44 47 184 212 207
3 46 47 42 184 212 207
3 41 46 42 184 212 207
3 46 40 45 184 212 207
3 41 40 46 184 212 207
3 47 43 44 184 212 207
3 42 43 47 184 212 207
3 48 49 50 184 212 207
3 48 50 51 184 212 207
3 48 51 52 184 212 207
3 53 48 52 184 212 207
3 54 53 52 184 212 207
3 54 52 55 184 212 207
3 54 55 50 184 212 207
3 49 54 50 184 212 207
3 49 48 53 184 212 207
3 54 49 53 184 212 207
3 50 51 52 184 212 207
3 55 50 52 184 212 207
